<svg xmlns="http://www.w3.org/2000/svg" width="64" height="64" viewBox="0 0 64 64"><defs><linearGradient id="gemflata" x1="0" y1="0" x2="0" y2="1"><stop offset="0" stop-color="#f2fdff"/><stop offset="1" stop-color="#7fdcff"/></linearGradient><linearGradient id="gemflatb" x1="0" y1="0" x2="0" y2="1"><stop offset="0" stop-color="#8fe4ff"/><stop offset="1" stop-color="#159ce4"/></linearGradient><linearGradient id="gemflatc" x1="0" y1="0" x2="0" y2="1"><stop offset="0" stop-color="#33b0ec"/><stop offset="1" stop-color="#08589c"/></linearGradient></defs><path d="M10 24 L20 12 L26 24 Z" fill="url(#gemflata)"/><path d="M20 12 H44 L38 24 H26 Z" fill="url(#gemflata)"/><path d="M38 24 L44 12 L54 24 Z" fill="url(#gemflatb)"/><path d="M10 24 H26 L32 56 Z" fill="url(#gemflatb)"/><path d="M26 24 H38 L32 56 Z" fill="url(#gemflata)"/><path d="M38 24 H54 L32 56 Z" fill="url(#gemflatc)"/><path d="M10 24 H54 M20 12 L26 24 L32 56 M44 12 L38 24 L32 56" fill="none" stroke="#0a5a9c" stroke-width="1" stroke-linecap="round" stroke-linejoin="round" opacity=".45"/><path d="M10 24 L20 12 H44 L54 24 L32 56 Z" fill="none" stroke="#0a4f8c" stroke-width="2.5" stroke-linejoin="round" stroke-linecap="round"/><path d="M15 23 L21 15.5" fill="none" stroke="#fff" stroke-width="2.5" stroke-linecap="round" stroke-linejoin="round" opacity="0.85"/><path d="M50 4 Q50 10 56 10 Q50 10 50 16 Q50 10 44 10 Q50 10 50 4 Z" fill="#fff"/><path d="M17 38.5 Q17 42 20.5 42 Q17 42 17 45.5 Q17 42 13.5 42 Q17 42 17 38.5 Z" fill="#fff"/></svg>
