<svg xmlns="http://www.w3.org/2000/svg" viewBox="0 0 64 64" width="64" height="64"><defs><linearGradient id="ig0" x1="0" y1="0" x2="0" y2="1"><stop offset="0" stop-color="#ffd590"/><stop offset="1" stop-color="#f08a1c"/></linearGradient><linearGradient id="ig0a" x1="0" y1="0" x2="0" y2="1"><stop offset="0" stop-color="#fffdf6"/><stop offset="1" stop-color="#f0e2c4"/></linearGradient><linearGradient id="ig0b" x1="0" y1="0" x2="0" y2="1"><stop offset="0" stop-color="#fffdf6"/><stop offset="1" stop-color="#f0e2c4"/></linearGradient></defs><g transform="translate(1.9 0) scale(.94)"><g transform="translate(0 4.5)"><path d="M26 6 H38 L50 48 H14 Z" fill="#6a3600" stroke="#6a3600" stroke-width="2" stroke-linejoin="round" stroke-linecap="round"/><path d="M22.6 20 H41.4 L44 30 H20 Z" fill="#6a3600" stroke="#6a3600" stroke-width="1.6" stroke-linejoin="round" stroke-linecap="round"/><rect x="6" y="47" width="52" height="10" rx="3" fill="#6a3600" stroke="#6a3600" stroke-width="2" stroke-linejoin="round"/></g><g transform="translate(0 2.5)"><path d="M26 6 H38 L50 48 H14 Z" fill="#a85a00" stroke="#6a3600" stroke-width="2" stroke-linejoin="round" stroke-linecap="round"/><path d="M22.6 20 H41.4 L44 30 H20 Z" fill="#a85a00" stroke="#6a3600" stroke-width="1.6" stroke-linejoin="round" stroke-linecap="round"/><rect x="6" y="47" width="52" height="10" rx="3" fill="#a85a00" stroke="#6a3600" stroke-width="2" stroke-linejoin="round"/></g><path d="M26 6 H38 L50 48 H14 Z" fill="url(#ig0)" stroke="#6a3600" stroke-width="2" stroke-linejoin="round" stroke-linecap="round"/><path d="M22.6 20 H41.4 L44 30 H20 Z" fill="url(#ig0a)" stroke="#6a3600" stroke-width="1.6" stroke-linejoin="round" stroke-linecap="round"/><rect x="6" y="47" width="52" height="10" rx="3" fill="url(#ig0)" stroke="#6a3600" stroke-width="2" stroke-linejoin="round"/><path d="M28 14 L24 28" fill="none" stroke="#ffffff" stroke-width="2.2" stroke-linecap="round" stroke-linejoin="round" opacity=".8"/></g></svg>