<svg xmlns="http://www.w3.org/2000/svg" viewBox="0 0 64 64" width="64" height="64"><defs><linearGradient id="ig0" x1="0" y1="0" x2="0" y2="1"><stop offset="0" stop-color="#fffdf6"/><stop offset="1" stop-color="#f0e2c4"/></linearGradient><linearGradient id="ig0a" x1="0" y1="0" x2="0" y2="1"><stop offset="0" stop-color="#ff9ab4"/><stop offset="1" stop-color="#d0164a"/></linearGradient><linearGradient id="ig0b" x1="0" y1="0" x2="0" y2="1"><stop offset="0" stop-color="#ff9ab4"/><stop offset="1" stop-color="#d0164a"/></linearGradient></defs><g transform="translate(1.9 0) scale(.94)"><g transform="translate(0 4.5)"><path d="M32 5 C46 5 54 15 54 27 C54 35 50 40 46 42 V50 Q46 55 41 55 H23 Q18 55 18 50 V42 C14 40 10 35 10 27 C10 15 18 5 32 5 Z" fill="#6a5838" stroke="#6a5838" stroke-width="2" stroke-linejoin="round" stroke-linecap="round"/><ellipse cx="23" cy="30" rx="6.5" ry="7" fill="#6a5838" stroke="#6a5838" stroke-width="1.6"/><ellipse cx="41" cy="30" rx="6.5" ry="7" fill="#6a5838" stroke="#6a5838" stroke-width="1.6"/><path d="M32 37 L35.5 43 H28.5 Z" fill="#6a5838" stroke="#6a5838" stroke-width="0" stroke-linejoin="round" stroke-linecap="round"/><path d="M26 48 V55 M32 48 V55 M38 48 V55" fill="none" stroke="#6a5838" stroke-width="1.6" stroke-linecap="round" stroke-linejoin="round" /></g><g transform="translate(0 2.5)"><path d="M32 5 C46 5 54 15 54 27 C54 35 50 40 46 42 V50 Q46 55 41 55 H23 Q18 55 18 50 V42 C14 40 10 35 10 27 C10 15 18 5 32 5 Z" fill="#b8a27a" stroke="#6a5838" stroke-width="2" stroke-linejoin="round" stroke-linecap="round"/><ellipse cx="23" cy="30" rx="6.5" ry="7" fill="#b8a27a" stroke="#6a5838" stroke-width="1.6"/><ellipse cx="41" cy="30" rx="6.5" ry="7" fill="#b8a27a" stroke="#6a5838" stroke-width="1.6"/><path d="M32 37 L35.5 43 H28.5 Z" fill="#6a5838" stroke="#6a5838" stroke-width="0" stroke-linejoin="round" stroke-linecap="round"/><path d="M26 48 V55 M32 48 V55 M38 48 V55" fill="none" stroke="#6a5838" stroke-width="1.6" stroke-linecap="round" stroke-linejoin="round" /></g><path d="M32 5 C46 5 54 15 54 27 C54 35 50 40 46 42 V50 Q46 55 41 55 H23 Q18 55 18 50 V42 C14 40 10 35 10 27 C10 15 18 5 32 5 Z" fill="url(#ig0)" stroke="#6a5838" stroke-width="2" stroke-linejoin="round" stroke-linecap="round"/><ellipse cx="23" cy="30" rx="6.5" ry="7" fill="url(#ig0a)" stroke="#6a5838" stroke-width="1.6"/><ellipse cx="41" cy="30" rx="6.5" ry="7" fill="url(#ig0a)" stroke="#6a5838" stroke-width="1.6"/><path d="M32 37 L35.5 43 H28.5 Z" fill="#6a5838" stroke="#6a5838" stroke-width="0" stroke-linejoin="round" stroke-linecap="round"/><path d="M26 48 V55 M32 48 V55 M38 48 V55" fill="none" stroke="#6a5838" stroke-width="1.6" stroke-linecap="round" stroke-linejoin="round" /><path d="M16 24 A17 17 0 0 1 24 12" fill="none" stroke="#ffffff" stroke-width="2.2" stroke-linecap="round" stroke-linejoin="round" opacity=".8"/></g></svg>