<svg xmlns="http://www.w3.org/2000/svg" viewBox="0 0 64 64" width="64" height="64"><defs><linearGradient id="ig0" x1="0" y1="0" x2="0" y2="1"><stop offset="0" stop-color="#c4f5a8"/><stop offset="1" stop-color="#3fbf4a"/></linearGradient><linearGradient id="ig0a" x1="0" y1="0" x2="0" y2="1"><stop offset="0" stop-color="#c4f5a8"/><stop offset="1" stop-color="#3fbf4a"/></linearGradient><linearGradient id="ig0b" x1="0" y1="0" x2="0" y2="1"><stop offset="0" stop-color="#c4f5a8"/><stop offset="1" stop-color="#3fbf4a"/></linearGradient></defs><g transform="translate(1.9 0) scale(.94)"><g transform="translate(0 4.5)"><path d="M56.7 27.2 L56.7 34.8 L50.5 35.2 L48.9 39.7 L53.4 44.0 L48.5 49.8 L43.5 46.1 L39.4 48.5 L40.1 54.7 L32.5 56.0 L31.1 50.0 L26.4 49.2 L23.0 54.3 L16.3 50.5 L19.1 44.9 L16.0 41.3 L10.1 43.0 L7.5 35.9 L13.1 33.4 L13.1 28.6 L7.5 26.1 L10.1 19.0 L16.0 20.7 L19.1 17.1 L16.3 11.5 L23.0 7.7 L26.4 12.8 L31.1 12.0 L32.5 6.0 L40.1 7.3 L39.4 13.5 L43.5 15.9 L48.5 12.2 L53.4 18.0 L48.9 22.3 L50.5 26.8 Z" fill="#10461a" stroke="#10461a" stroke-width="2" stroke-linejoin="round" stroke-linecap="round"/><circle cx="32" cy="31" r="11" fill="#10461a" stroke="#10461a" stroke-width="1.8"/><path d="M32 25 V37 M26 31 H38" fill="none" stroke="#10461a" stroke-width="3.4" stroke-linecap="round" stroke-linejoin="round" /></g><g transform="translate(0 2.5)"><path d="M56.7 27.2 L56.7 34.8 L50.5 35.2 L48.9 39.7 L53.4 44.0 L48.5 49.8 L43.5 46.1 L39.4 48.5 L40.1 54.7 L32.5 56.0 L31.1 50.0 L26.4 49.2 L23.0 54.3 L16.3 50.5 L19.1 44.9 L16.0 41.3 L10.1 43.0 L7.5 35.9 L13.1 33.4 L13.1 28.6 L7.5 26.1 L10.1 19.0 L16.0 20.7 L19.1 17.1 L16.3 11.5 L23.0 7.7 L26.4 12.8 L31.1 12.0 L32.5 6.0 L40.1 7.3 L39.4 13.5 L43.5 15.9 L48.5 12.2 L53.4 18.0 L48.9 22.3 L50.5 26.8 Z" fill="#24802c" stroke="#10461a" stroke-width="2" stroke-linejoin="round" stroke-linecap="round"/><circle cx="32" cy="31" r="11" fill="#24802c" stroke="#10461a" stroke-width="1.8"/><path d="M32 25 V37 M26 31 H38" fill="none" stroke="#10461a" stroke-width="3.4" stroke-linecap="round" stroke-linejoin="round" /></g><path d="M56.7 27.2 L56.7 34.8 L50.5 35.2 L48.9 39.7 L53.4 44.0 L48.5 49.8 L43.5 46.1 L39.4 48.5 L40.1 54.7 L32.5 56.0 L31.1 50.0 L26.4 49.2 L23.0 54.3 L16.3 50.5 L19.1 44.9 L16.0 41.3 L10.1 43.0 L7.5 35.9 L13.1 33.4 L13.1 28.6 L7.5 26.1 L10.1 19.0 L16.0 20.7 L19.1 17.1 L16.3 11.5 L23.0 7.7 L26.4 12.8 L31.1 12.0 L32.5 6.0 L40.1 7.3 L39.4 13.5 L43.5 15.9 L48.5 12.2 L53.4 18.0 L48.9 22.3 L50.5 26.8 Z" fill="url(#ig0)" stroke="#10461a" stroke-width="2" stroke-linejoin="round" stroke-linecap="round"/><circle cx="32" cy="31" r="11" fill="#fffdf6" stroke="#10461a" stroke-width="1.8"/><path d="M32 25 V37 M26 31 H38" fill="none" stroke="#10461a" stroke-width="3.4" stroke-linecap="round" stroke-linejoin="round" /><path d="M16 22 A17 17 0 0 1 24 13" fill="none" stroke="#ffffff" stroke-width="2.2" stroke-linecap="round" stroke-linejoin="round" opacity=".8"/></g></svg>