<svg xmlns="http://www.w3.org/2000/svg" viewBox="0 0 64 64" width="64" height="64"><defs><linearGradient id="ig0" x1="0" y1="0" x2="0" y2="1"><stop offset="0" stop-color="#fffdf6"/><stop offset="1" stop-color="#f0e2c4"/></linearGradient><linearGradient id="ig0a" x1="0" y1="0" x2="0" y2="1"><stop offset="0" stop-color="#ffffff"/><stop offset="1" stop-color="#a8b0b8"/></linearGradient><linearGradient id="ig0b" x1="0" y1="0" x2="0" y2="1"><stop offset="0" stop-color="#ffffff"/><stop offset="1" stop-color="#a8b0b8"/></linearGradient></defs><g transform="translate(1.9 0) scale(.94)"><g transform="translate(0 4.5)"><rect x="27" y="5" width="10" height="22" rx="4" fill="#6a5838" stroke="#6a5838" stroke-width="2" stroke-linejoin="round"/><path d="M27 12 H37 M27 17 H37" fill="none" stroke="#6a5838" stroke-width="1.6" stroke-linecap="round" stroke-linejoin="round" /><path d="M21 27 H43 L45 35 H19 Z" fill="#6a5838" stroke="#6a5838" stroke-width="2" stroke-linejoin="round" stroke-linecap="round"/><rect x="25" y="35" width="14" height="11" rx="2" fill="#6a5838" stroke="#6a5838" stroke-width="1.8" stroke-linejoin="round"/><path d="M25 39 H39 M25 43 H39" fill="none" stroke="#6a5838" stroke-width="1.4" stroke-linecap="round" stroke-linejoin="round" /><path d="M32 46 V54 H38 V51" fill="none" stroke="#6a5838" stroke-width="3" stroke-linecap="round" stroke-linejoin="round" /></g><g transform="translate(0 2.5)"><rect x="27" y="5" width="10" height="22" rx="4" fill="#b8a27a" stroke="#6a5838" stroke-width="2" stroke-linejoin="round"/><path d="M27 12 H37 M27 17 H37" fill="none" stroke="#b8a27a" stroke-width="1.6" stroke-linecap="round" stroke-linejoin="round" /><path d="M21 27 H43 L45 35 H19 Z" fill="#b8a27a" stroke="#6a5838" stroke-width="2" stroke-linejoin="round" stroke-linecap="round"/><rect x="25" y="35" width="14" height="11" rx="2" fill="#b8a27a" stroke="#6a5838" stroke-width="1.8" stroke-linejoin="round"/><path d="M25 39 H39 M25 43 H39" fill="none" stroke="#6a5838" stroke-width="1.4" stroke-linecap="round" stroke-linejoin="round" /><path d="M32 46 V54 H38 V51" fill="none" stroke="#6a5838" stroke-width="3" stroke-linecap="round" stroke-linejoin="round" /></g><rect x="27" y="5" width="10" height="22" rx="4" fill="url(#ig0)" stroke="#6a5838" stroke-width="2" stroke-linejoin="round"/><path d="M27 12 H37 M27 17 H37" fill="none" stroke="#b8a27a" stroke-width="1.6" stroke-linecap="round" stroke-linejoin="round" /><path d="M21 27 H43 L45 35 H19 Z" fill="url(#ig0a)" stroke="#6a5838" stroke-width="2" stroke-linejoin="round" stroke-linecap="round"/><rect x="25" y="35" width="14" height="11" rx="2" fill="url(#ig0a)" stroke="#6a5838" stroke-width="1.8" stroke-linejoin="round"/><path d="M25 39 H39 M25 43 H39" fill="none" stroke="#6a5838" stroke-width="1.4" stroke-linecap="round" stroke-linejoin="round" /><path d="M32 46 V54 H38 V51" fill="none" stroke="#6a5838" stroke-width="3" stroke-linecap="round" stroke-linejoin="round" /><path d="M29 9 V22" fill="none" stroke="#ffffff" stroke-width="2.2" stroke-linecap="round" stroke-linejoin="round" opacity=".8"/></g></svg>