<svg xmlns="http://www.w3.org/2000/svg" viewBox="0 0 64 64" width="64" height="64"><defs><linearGradient id="ig0" x1="0" y1="0" x2="0" y2="1"><stop offset="0" stop-color="#ffb3a3"/><stop offset="1" stop-color="#e8402e"/></linearGradient><linearGradient id="ig0a" x1="0" y1="0" x2="0" y2="1"><stop offset="0" stop-color="#ffffff"/><stop offset="1" stop-color="#a8b0b8"/></linearGradient><linearGradient id="ig0b" x1="0" y1="0" x2="0" y2="1"><stop offset="0" stop-color="#ffffff"/><stop offset="1" stop-color="#a8b0b8"/></linearGradient></defs><g transform="translate(1.9 0) scale(.94)"><g transform="translate(0 4.5)"><path d="M24 24 V15 Q24 12 27 12 H37 Q40 12 40 15 V24" fill="none" stroke="#6e140c" stroke-width="7" stroke-linecap="round" stroke-linejoin="round" /><path d="M24 24 V15 Q24 12 27 12 H37 Q40 12 40 15 V24" fill="none" stroke="#6e140c" stroke-width="3" stroke-linecap="round" stroke-linejoin="round" /><rect x="8" y="23" width="48" height="31" rx="5" fill="#6e140c" stroke="#6e140c" stroke-width="2" stroke-linejoin="round"/><path d="M8 33 H56" fill="none" stroke="#6e140c" stroke-width="2" stroke-linecap="round" stroke-linejoin="round" /><rect x="27" y="29" width="10" height="9" rx="2" fill="#6e140c" stroke="#6e140c" stroke-width="1.5" stroke-linejoin="round"/></g><g transform="translate(0 2.5)"><path d="M24 24 V15 Q24 12 27 12 H37 Q40 12 40 15 V24" fill="none" stroke="#6e140c" stroke-width="7" stroke-linecap="round" stroke-linejoin="round" /><path d="M24 24 V15 Q24 12 27 12 H37 Q40 12 40 15 V24" fill="none" stroke="#a8261a" stroke-width="3" stroke-linecap="round" stroke-linejoin="round" /><rect x="8" y="23" width="48" height="31" rx="5" fill="#a8261a" stroke="#6e140c" stroke-width="2" stroke-linejoin="round"/><path d="M8 33 H56" fill="none" stroke="#6e140c" stroke-width="2" stroke-linecap="round" stroke-linejoin="round" /><rect x="27" y="29" width="10" height="9" rx="2" fill="#a8261a" stroke="#6e140c" stroke-width="1.5" stroke-linejoin="round"/></g><path d="M24 24 V15 Q24 12 27 12 H37 Q40 12 40 15 V24" fill="none" stroke="#6e140c" stroke-width="7" stroke-linecap="round" stroke-linejoin="round" /><path d="M24 24 V15 Q24 12 27 12 H37 Q40 12 40 15 V24" fill="none" stroke="url(#ig0)" stroke-width="3" stroke-linecap="round" stroke-linejoin="round" /><rect x="8" y="23" width="48" height="31" rx="5" fill="url(#ig0)" stroke="#6e140c" stroke-width="2" stroke-linejoin="round"/><path d="M8 33 H56" fill="none" stroke="#6e140c" stroke-width="2" stroke-linecap="round" stroke-linejoin="round" /><rect x="27" y="29" width="10" height="9" rx="2" fill="url(#ig0a)" stroke="#6e140c" stroke-width="1.5" stroke-linejoin="round"/><path d="M13 27 H30" fill="none" stroke="#ffffff" stroke-width="2.2" stroke-linecap="round" stroke-linejoin="round" opacity=".8"/></g></svg>