<svg xmlns="http://www.w3.org/2000/svg" width="64" height="64" viewBox="0 0 64 64"><g transform="translate(1.9 0) scale(.94)"><g transform="translate(0 4.5)"><circle cx="32" cy="32" r="27" fill="#05070a" stroke="#05070a" stroke-width="2" stroke-linejoin="round" stroke-linecap="round"/><circle cx="32" cy="32" r="23" fill="none" stroke="#05070a" stroke-width="4.5" stroke-dasharray="5 4.63"/><circle cx="32" cy="32" r="15" fill="#05070a" stroke="#05070a" stroke-width="2" stroke-linejoin="round" stroke-linecap="round"/><path d="M32 32 L32 20 M32 32 L43.4 28.3 M32 32 L39.05 41.7 M32 32 L24.95 41.7 M32 32 L20.6 28.3" fill="none" stroke="#05070a" stroke-width="3" stroke-linecap="round" stroke-linejoin="round"/><circle cx="32" cy="32" r="4.5" fill="#05070a"/></g><g transform="translate(0 2.5)"><circle cx="32" cy="32" r="27" fill="#2a2f3b" stroke="#05070a" stroke-width="2" stroke-linejoin="round" stroke-linecap="round"/><circle cx="32" cy="32" r="23" fill="none" stroke="#05070a" stroke-width="4.5" stroke-dasharray="5 4.63"/><circle cx="32" cy="32" r="15" fill="#2a2f3b" stroke="#05070a" stroke-width="2" stroke-linejoin="round" stroke-linecap="round"/><path d="M32 32 L32 20 M32 32 L43.4 28.3 M32 32 L39.05 41.7 M32 32 L24.95 41.7 M32 32 L20.6 28.3" fill="none" stroke="#05070a" stroke-width="3" stroke-linecap="round" stroke-linejoin="round"/><circle cx="32" cy="32" r="4.5" fill="#2a2f3b"/></g><defs><radialGradient id="tractiont" cx="0.4" cy="0.35" r="0.7"><stop offset="0" stop-color="#5a6378"/><stop offset="1" stop-color="#101319"/></radialGradient><radialGradient id="tractiong" cx="0.38" cy="0.3" r="0.8"><stop offset="0" stop-color="#fff4b0"/><stop offset="1" stop-color="#e08a00"/></radialGradient></defs><circle cx="32" cy="32" r="27" fill="url(#tractiont)" stroke="#05070a" stroke-width="2" stroke-linejoin="round" stroke-linecap="round"/><circle cx="32" cy="32" r="23" fill="none" stroke="#2a2f3b" stroke-width="4.5" stroke-dasharray="5 4.63"/><path d="M11 25 A22 22 0 0 1 21 13" fill="none" stroke="#fff" stroke-width="2.5" stroke-linecap="round" stroke-linejoin="round" opacity="0.5"/><circle cx="32" cy="32" r="15" fill="url(#tractiong)" stroke="#8a5200" stroke-width="2" stroke-linejoin="round" stroke-linecap="round"/><path d="M32 32 L32 20 M32 32 L43.4 28.3 M32 32 L39.05 41.7 M32 32 L24.95 41.7 M32 32 L20.6 28.3" fill="none" stroke="#6b3f00" stroke-width="3" stroke-linecap="round" stroke-linejoin="round"/><circle cx="32" cy="32" r="4.5" fill="#4a2c00"/><path d="M21.5 27 A12 12 0 0 1 27 21.5" fill="none" stroke="#fff" stroke-width="2" stroke-linecap="round" stroke-linejoin="round" opacity="0.9"/></g></svg>
