<svg xmlns="http://www.w3.org/2000/svg" viewBox="0 0 64 64" width="64" height="64"><defs><linearGradient id="ig0" x1="0" y1="0" x2="0" y2="1"><stop offset="0" stop-color="#d4f0ff"/><stop offset="1" stop-color="#3fa8f0"/></linearGradient><linearGradient id="ig0a" x1="0" y1="0" x2="0" y2="1"><stop offset="0" stop-color="#f5c98a"/><stop offset="1" stop-color="#c47a32"/></linearGradient><linearGradient id="ig0b" x1="0" y1="0" x2="0" y2="1"><stop offset="0" stop-color="#f5c98a"/><stop offset="1" stop-color="#c47a32"/></linearGradient></defs><g transform="translate(1.9 0) scale(.94)"><g transform="translate(0 4.5)"><rect x="12" y="12" width="14" height="12" rx="1.5" fill="#0c3c66" stroke="#0c3c66" stroke-width="1.8" stroke-linejoin="round"/><rect x="28" y="8" width="14" height="16" rx="1.5" fill="#0c3c66" stroke="#0c3c66" stroke-width="1.8" stroke-linejoin="round"/><rect x="44" y="14" width="12" height="10" rx="1.5" fill="#0c3c66" stroke="#0c3c66" stroke-width="1.8" stroke-linejoin="round"/><path d="M6 24 H58 V44 Q58 48 54 48 H10 Q6 48 6 44 Z" fill="#0c3c66" stroke="#0c3c66" stroke-width="2" stroke-linejoin="round" stroke-linecap="round"/><circle cx="16" cy="52" r="6" fill="#0c3c66" stroke="#0c3c66" stroke-width="0"/><circle cx="48" cy="52" r="6" fill="#0c3c66" stroke="#0c3c66" stroke-width="0"/></g><g transform="translate(0 2.5)"><rect x="12" y="12" width="14" height="12" rx="1.5" fill="#1f6eaa" stroke="#0c3c66" stroke-width="1.8" stroke-linejoin="round"/><rect x="28" y="8" width="14" height="16" rx="1.5" fill="#1f6eaa" stroke="#0c3c66" stroke-width="1.8" stroke-linejoin="round"/><rect x="44" y="14" width="12" height="10" rx="1.5" fill="#1f6eaa" stroke="#0c3c66" stroke-width="1.8" stroke-linejoin="round"/><path d="M6 24 H58 V44 Q58 48 54 48 H10 Q6 48 6 44 Z" fill="#1f6eaa" stroke="#0c3c66" stroke-width="2" stroke-linejoin="round" stroke-linecap="round"/><circle cx="16" cy="52" r="6" fill="#0c3c66" stroke="#0c3c66" stroke-width="0"/><circle cx="48" cy="52" r="6" fill="#0c3c66" stroke="#0c3c66" stroke-width="0"/></g><rect x="12" y="12" width="14" height="12" rx="1.5" fill="url(#ig0a)" stroke="#0c3c66" stroke-width="1.8" stroke-linejoin="round"/><rect x="28" y="8" width="14" height="16" rx="1.5" fill="url(#ig0a)" stroke="#0c3c66" stroke-width="1.8" stroke-linejoin="round"/><rect x="44" y="14" width="12" height="10" rx="1.5" fill="url(#ig0a)" stroke="#0c3c66" stroke-width="1.8" stroke-linejoin="round"/><path d="M6 24 H58 V44 Q58 48 54 48 H10 Q6 48 6 44 Z" fill="url(#ig0)" stroke="#0c3c66" stroke-width="2" stroke-linejoin="round" stroke-linecap="round"/><circle cx="16" cy="52" r="6" fill="#0c3c66" stroke="#0c3c66" stroke-width="0"/><circle cx="48" cy="52" r="6" fill="#0c3c66" stroke="#0c3c66" stroke-width="0"/><path d="M10 38 H50" fill="none" stroke="#ffffff" stroke-width="2.2" stroke-linecap="round" stroke-linejoin="round" opacity=".8"/></g></svg>