<svg xmlns="http://www.w3.org/2000/svg" viewBox="0 0 64 64" width="64" height="64"><defs><linearGradient id="ig0" x1="0" y1="0" x2="0" y2="1"><stop offset="0" stop-color="#ff9ab4"/><stop offset="1" stop-color="#d0164a"/></linearGradient><linearGradient id="ig0a" x1="0" y1="0" x2="0" y2="1"><stop offset="0" stop-color="#ffffff"/><stop offset="1" stop-color="#a8b0b8"/></linearGradient><linearGradient id="ig0b" x1="0" y1="0" x2="0" y2="1"><stop offset="0" stop-color="#ffffff"/><stop offset="1" stop-color="#a8b0b8"/></linearGradient></defs><g transform="translate(1.9 0) scale(.94)"><g transform="translate(0 4.5)"><rect x="6" y="10" width="52" height="9" rx="3" fill="#6e0820" stroke="#6e0820" stroke-width="2" stroke-linejoin="round"/><rect x="16" y="18" width="6" height="14" rx="1" fill="#6e0820" stroke="#6e0820" stroke-width="1.6" stroke-linejoin="round"/><rect x="42" y="18" width="6" height="14" rx="1" fill="#6e0820" stroke="#6e0820" stroke-width="1.6" stroke-linejoin="round"/><path d="M20 38 H26 V46 H30 L23 56 L16 46 H20 Z" fill="#6e0820" stroke="#6e0820" stroke-width="1.6" stroke-linejoin="round" stroke-linecap="round"/><path d="M38 38 H44 V46 H48 L41 56 L34 46 H38 Z" fill="#6e0820" stroke="#6e0820" stroke-width="1.6" stroke-linejoin="round" stroke-linecap="round"/></g><g transform="translate(0 2.5)"><rect x="6" y="10" width="52" height="9" rx="3" fill="#940c2e" stroke="#6e0820" stroke-width="2" stroke-linejoin="round"/><rect x="16" y="18" width="6" height="14" rx="1" fill="#940c2e" stroke="#6e0820" stroke-width="1.6" stroke-linejoin="round"/><rect x="42" y="18" width="6" height="14" rx="1" fill="#940c2e" stroke="#6e0820" stroke-width="1.6" stroke-linejoin="round"/><path d="M20 38 H26 V46 H30 L23 56 L16 46 H20 Z" fill="#940c2e" stroke="#6e0820" stroke-width="1.6" stroke-linejoin="round" stroke-linecap="round"/><path d="M38 38 H44 V46 H48 L41 56 L34 46 H38 Z" fill="#940c2e" stroke="#6e0820" stroke-width="1.6" stroke-linejoin="round" stroke-linecap="round"/></g><rect x="6" y="10" width="52" height="9" rx="3" fill="url(#ig0)" stroke="#6e0820" stroke-width="2" stroke-linejoin="round"/><rect x="16" y="18" width="6" height="14" rx="1" fill="url(#ig0a)" stroke="#6e0820" stroke-width="1.6" stroke-linejoin="round"/><rect x="42" y="18" width="6" height="14" rx="1" fill="url(#ig0a)" stroke="#6e0820" stroke-width="1.6" stroke-linejoin="round"/><path d="M20 38 H26 V46 H30 L23 56 L16 46 H20 Z" fill="url(#ig0)" stroke="#6e0820" stroke-width="1.6" stroke-linejoin="round" stroke-linecap="round"/><path d="M38 38 H44 V46 H48 L41 56 L34 46 H38 Z" fill="url(#ig0)" stroke="#6e0820" stroke-width="1.6" stroke-linejoin="round" stroke-linecap="round"/><path d="M10 14 H52" fill="none" stroke="#ffffff" stroke-width="2.2" stroke-linecap="round" stroke-linejoin="round" opacity=".8"/></g></svg>