<svg xmlns="http://www.w3.org/2000/svg" viewBox="0 0 64 64" width="64" height="64"><defs><linearGradient id="ig0" x1="0" y1="0" x2="0" y2="1"><stop offset="0" stop-color="#f5c98a"/><stop offset="1" stop-color="#c47a32"/></linearGradient><linearGradient id="ig0a" x1="0" y1="0" x2="0" y2="1"><stop offset="0" stop-color="#ffd590"/><stop offset="1" stop-color="#f08a1c"/></linearGradient><linearGradient id="ig0b" x1="0" y1="0" x2="0" y2="1"><stop offset="0" stop-color="#ffd590"/><stop offset="1" stop-color="#f08a1c"/></linearGradient></defs><g transform="translate(1.9 0) scale(.94)"><g transform="translate(0 4.5)"><rect x="8" y="8" width="26" height="22" rx="2" fill="#4f2a0a" stroke="#4f2a0a" stroke-width="2" stroke-linejoin="round"/><path d="M8 19 H34" fill="none" stroke="#4f2a0a" stroke-width="1.6" stroke-linecap="round" stroke-linejoin="round" /><rect x="26" y="34" width="26" height="22" rx="2" fill="#4f2a0a" stroke="#4f2a0a" stroke-width="2" stroke-linejoin="round"/><path d="M26 45 H52" fill="none" stroke="#4f2a0a" stroke-width="1.6" stroke-linecap="round" stroke-linejoin="round" /><path d="M44 6 H52 V18 H58 L48 30 L38 18 H44 Z" fill="#4f2a0a" stroke="#4f2a0a" stroke-width="1.8" stroke-linejoin="round" stroke-linecap="round"/></g><g transform="translate(0 2.5)"><rect x="8" y="8" width="26" height="22" rx="2" fill="#8a4f1a" stroke="#4f2a0a" stroke-width="2" stroke-linejoin="round"/><path d="M8 19 H34" fill="none" stroke="#4f2a0a" stroke-width="1.6" stroke-linecap="round" stroke-linejoin="round" /><rect x="26" y="34" width="26" height="22" rx="2" fill="#8a4f1a" stroke="#4f2a0a" stroke-width="2" stroke-linejoin="round"/><path d="M26 45 H52" fill="none" stroke="#4f2a0a" stroke-width="1.6" stroke-linecap="round" stroke-linejoin="round" /><path d="M44 6 H52 V18 H58 L48 30 L38 18 H44 Z" fill="#8a4f1a" stroke="#4f2a0a" stroke-width="1.8" stroke-linejoin="round" stroke-linecap="round"/></g><rect x="8" y="8" width="26" height="22" rx="2" fill="url(#ig0)" stroke="#4f2a0a" stroke-width="2" stroke-linejoin="round"/><path d="M8 19 H34" fill="none" stroke="#4f2a0a" stroke-width="1.6" stroke-linecap="round" stroke-linejoin="round" /><rect x="26" y="34" width="26" height="22" rx="2" fill="url(#ig0)" stroke="#4f2a0a" stroke-width="2" stroke-linejoin="round"/><path d="M26 45 H52" fill="none" stroke="#4f2a0a" stroke-width="1.6" stroke-linecap="round" stroke-linejoin="round" /><path d="M44 6 H52 V18 H58 L48 30 L38 18 H44 Z" fill="url(#ig0a)" stroke="#4f2a0a" stroke-width="1.8" stroke-linejoin="round" stroke-linecap="round"/><path d="M12 12 H30" fill="none" stroke="#ffffff" stroke-width="2.2" stroke-linecap="round" stroke-linejoin="round" opacity=".8"/></g></svg>