<svg xmlns="http://www.w3.org/2000/svg" viewBox="0 0 64 64" width="64" height="64"><defs><linearGradient id="ig0" x1="0" y1="0" x2="0" y2="1"><stop offset="0" stop-color="#f5c98a"/><stop offset="1" stop-color="#c47a32"/></linearGradient><linearGradient id="ig0a" x1="0" y1="0" x2="0" y2="1"><stop offset="0" stop-color="#ffe68a"/><stop offset="1" stop-color="#f0a020"/></linearGradient><linearGradient id="ig0b" x1="0" y1="0" x2="0" y2="1"><stop offset="0" stop-color="#ffe68a"/><stop offset="1" stop-color="#f0a020"/></linearGradient></defs><g transform="translate(1.9 0) scale(.94)"><g transform="translate(0 4.5)"><rect x="6" y="30" width="26" height="24" rx="2" fill="#4f2a0a" stroke="#4f2a0a" stroke-width="2" stroke-linejoin="round"/><path d="M6 38 H32 M6 46 H32" fill="none" stroke="#4f2a0a" stroke-width="1.6" stroke-linecap="round" stroke-linejoin="round" /><rect x="32" y="12" width="26" height="24" rx="2" fill="#4f2a0a" stroke="#4f2a0a" stroke-width="2" stroke-linejoin="round"/><path d="M32 20 H58 M32 28 H58" fill="none" stroke="#4f2a0a" stroke-width="1.6" stroke-linecap="round" stroke-linejoin="round" /><circle cx="45" cy="48" r="7" fill="#4f2a0a" stroke="#4f2a0a" stroke-width="1.8"/><path d="M45 44 V52 M41 48 H49" fill="none" stroke="#4f2a0a" stroke-width="2.2" stroke-linecap="round" stroke-linejoin="round" /></g><g transform="translate(0 2.5)"><rect x="6" y="30" width="26" height="24" rx="2" fill="#8a4f1a" stroke="#4f2a0a" stroke-width="2" stroke-linejoin="round"/><path d="M6 38 H32 M6 46 H32" fill="none" stroke="#4f2a0a" stroke-width="1.6" stroke-linecap="round" stroke-linejoin="round" /><rect x="32" y="12" width="26" height="24" rx="2" fill="#8a4f1a" stroke="#4f2a0a" stroke-width="2" stroke-linejoin="round"/><path d="M32 20 H58 M32 28 H58" fill="none" stroke="#4f2a0a" stroke-width="1.6" stroke-linecap="round" stroke-linejoin="round" /><circle cx="45" cy="48" r="7" fill="#8a4f1a" stroke="#4f2a0a" stroke-width="1.8"/><path d="M45 44 V52 M41 48 H49" fill="none" stroke="#4f2a0a" stroke-width="2.2" stroke-linecap="round" stroke-linejoin="round" /></g><rect x="6" y="30" width="26" height="24" rx="2" fill="url(#ig0)" stroke="#4f2a0a" stroke-width="2" stroke-linejoin="round"/><path d="M6 38 H32 M6 46 H32" fill="none" stroke="#4f2a0a" stroke-width="1.6" stroke-linecap="round" stroke-linejoin="round" /><rect x="32" y="12" width="26" height="24" rx="2" fill="url(#ig0)" stroke="#4f2a0a" stroke-width="2" stroke-linejoin="round"/><path d="M32 20 H58 M32 28 H58" fill="none" stroke="#4f2a0a" stroke-width="1.6" stroke-linecap="round" stroke-linejoin="round" /><circle cx="45" cy="48" r="7" fill="url(#ig0a)" stroke="#4f2a0a" stroke-width="1.8"/><path d="M45 44 V52 M41 48 H49" fill="none" stroke="#4f2a0a" stroke-width="2.2" stroke-linecap="round" stroke-linejoin="round" /><path d="M10 34 H26" fill="none" stroke="#ffffff" stroke-width="2.2" stroke-linecap="round" stroke-linejoin="round" opacity=".8"/></g></svg>